<?xml version="1.0" encoding="utf-8"?>
<!-- Generator: Adobe Illustrator 26.3.1, SVG Export Plug-In . SVG Version: 6.00 Build 0)  -->
<svg version="1.1" id="Слой_1" xmlns="http://www.w3.org/2000/svg" xmlns:xlink="http://www.w3.org/1999/xlink" x="0px" y="0px"
	 viewBox="0 0 500 500" style="enable-background:new 0 0 500 500;" xml:space="preserve">
<g>
	<path d="M338.9,210.3v-9.7c0-18.9-15.4-34.3-34.3-34.3h-32.2c-1.1-7.8-7.8-13.8-15.9-13.8h-0.6v-15.4c5.3-2.3,9-7.6,9-13.7
		c0-8.3-6.7-15.1-15-15.1c-8.3,0-15.1,6.8-15.1,15.1c0,6.1,3.7,11.4,9,13.7v15.4h-0.7c-8.1,0-14.8,6-15.9,13.8H195
		c-18.9,0-34.3,15.4-34.3,34.3v9.7c-11.4,0.8-20.3,10.3-20.3,21.9c0,11.6,8.9,21.1,20.3,21.9v9.7c0,18.9,15.4,34.3,34.3,34.3h27.7
		v11.6h-36.5c-14.1,0-25.5,11.4-25.5,25.5v30.1c0,14,11.4,25.5,25.5,25.5h127.1c14,0,25.5-11.5,25.5-25.5v-30.1
		c0-14-11.5-25.5-25.5-25.5h-36.5v-11.6h27.7c18.9,0,34.3-15.4,34.3-34.3v-9.7c11.4-0.8,20.3-10.3,20.3-21.9
		C359.2,220.6,350.3,211.1,338.9,210.3z M160.8,249.5c-8.8-0.8-15.7-8.3-15.7-17.3c0-9,6.9-16.5,15.7-17.3V249.5z M239.4,123.3
		c0-5.8,4.7-10.5,10.5-10.5c5.8,0,10.4,4.7,10.4,10.5c0,3.5-1.8,6.6-4.4,8.5c-0.7,0.5-1.5,0.9-2.3,1.2c-0.7,0.3-1.5,0.5-2.3,0.6
		c-0.5,0-0.9,0.1-1.4,0.1c-0.5,0-1,0-1.4-0.1c-0.8-0.1-1.6-0.3-2.3-0.6c-0.8-0.3-1.6-0.7-2.3-1.2C241.1,130,239.4,126.8,239.4,123.3
		z M251.3,138.3v14.2h-2.9v-14.2c0.5,0.1,0.9,0.1,1.4,0.1C250.4,138.4,250.8,138.4,251.3,138.3z M243.1,157.1h13.4
		c5.6,0,10.2,4,11.3,9.2h-36C232.9,161,237.5,157.1,243.1,157.1z M313.4,314.3c11.5,0,20.9,9.4,20.9,20.9v30.1
		c0,11.5-9.4,20.9-20.9,20.9H186.3c-11.6,0-20.9-9.4-20.9-20.9v-30.1c0-11.5,9.4-20.9,20.9-20.9H313.4z M227.4,309.7v-11.6h45v11.6
		H227.4z M334.3,263.8c0,16.4-13.3,29.7-29.7,29.7H195c-16.4,0-29.7-13.3-29.7-29.7v-63.3c0-16.4,13.3-29.7,29.7-29.7h109.6
		c16.4,0,29.7,13.3,29.7,29.7V263.8z M338.9,249.5v-34.6c8.8,0.8,15.7,8.3,15.7,17.3C354.6,241.2,347.7,248.7,338.9,249.5z"/>
	<path d="M286.4,197.9h-73.1c-18.9,0-34.3,15.4-34.3,34.3c0,18.9,15.4,34.3,34.3,34.3h73.1c18.9,0,34.3-15.4,34.3-34.3
		C320.7,213.3,305.3,197.9,286.4,197.9z M286.4,261.9h-73.1c-16.4,0-29.7-13.3-29.7-29.7c0-16.4,13.3-29.7,29.7-29.7h73.1
		c16.4,0,29.7,13.3,29.7,29.7C316.1,248.5,302.8,261.9,286.4,261.9z"/>
	<path d="M295.2,322.5h-90.7c-14,0-25.5,11.5-25.5,25.5c0,14,11.5,25.5,25.5,25.5h90.7c14.1,0,25.5-11.5,25.5-25.5
		C320.7,334,309.3,322.5,295.2,322.5z M295.2,369h-90.7c-11.5,0-20.9-9.4-20.9-20.9c0-11.5,9.4-20.9,20.9-20.9h90.7
		c11.6,0,20.9,9.4,20.9,20.9C316.1,359.6,306.7,369,295.2,369z"/>
	<path d="M217.6,216.9c-8.4,0-15.2,6.9-15.2,15.2c0,8.4,6.9,15.2,15.2,15.2c8.4,0,15.2-6.9,15.2-15.2
		C232.8,223.8,225.9,216.9,217.6,216.9z M217.6,242.8c-5.8,0-10.6-4.8-10.6-10.6c0-5.9,4.8-10.6,10.6-10.6c5.9,0,10.6,4.8,10.6,10.6
		C228.2,238,223.4,242.8,217.6,242.8z"/>
	<path d="M209.6,339.2c-4.8,0-8.8,4-8.8,8.8c0,4.8,3.9,8.8,8.8,8.8s8.8-3.9,8.8-8.8C218.4,343.2,214.4,339.2,209.6,339.2z
		 M209.6,352.2c-2.3,0-4.1-1.8-4.1-4.1c0-2.3,1.8-4.2,4.1-4.2s4.2,1.9,4.2,4.2C213.8,350.3,211.9,352.2,209.6,352.2z"/>
	<path d="M248.9,339.2c-4.8,0-8.8,4-8.8,8.8c0,4.8,3.9,8.8,8.8,8.8c4.8,0,8.8-3.9,8.8-8.8C257.7,343.2,253.8,339.2,248.9,339.2z
		 M248.9,352.2c-2.3,0-4.1-1.8-4.1-4.1c0-2.3,1.8-4.2,4.1-4.2s4.2,1.9,4.2,4.2C253.1,350.3,251.2,352.2,248.9,352.2z"/>
	<path d="M288.3,339.2c-4.8,0-8.8,4-8.8,8.8c0,4.8,3.9,8.8,8.8,8.8s8.8-3.9,8.8-8.8C297.1,343.2,293.1,339.2,288.3,339.2z
		 M288.3,352.2c-2.3,0-4.1-1.8-4.1-4.1c0-2.3,1.8-4.2,4.1-4.2s4.2,1.9,4.2,4.2C292.5,350.3,290.6,352.2,288.3,352.2z"/>
	<path d="M283.8,216.9c-8.4,0-15.2,6.9-15.2,15.2c0,8.4,6.8,15.2,15.2,15.2c8.4,0,15.2-6.9,15.2-15.2
		C299,223.8,292.2,216.9,283.8,216.9z M283.8,242.8c-5.8,0-10.6-4.8-10.6-10.6c0-5.9,4.7-10.6,10.6-10.6c5.9,0,10.6,4.8,10.6,10.6
		C294.4,238,289.7,242.8,283.8,242.8z"/>
</g>
</svg>
